<mxfile host="app.diagrams.net" modified="2021-02-23T04:28:05.097Z" agent="5.0 (Windows NT 10.0; Win64; x64) AppleWebKit/537.36 (KHTML, like Gecko) Chrome/80.0.3987.122 Safari/537.36" etag="bXWtY9YcCg4jEyrIrynb" version="14.1.9" type="github">
  <diagram name="over all processes" id="c37626ed-c26b-45fb-9056-f9ebc6bb27b6">
    <mxGraphModel dx="1117" dy="624" grid="1" gridSize="10" guides="1" tooltips="1" connect="1" arrows="1" fold="1" page="1" pageScale="1" pageWidth="1100" pageHeight="850" background="#ffffff" math="0" shadow="0">
      <root>
        <mxCell id="0" />
        <mxCell id="1" parent="0" />
        <mxCell id="Bn4uSqP8nvEt52WO_NOp-6" value="" style="html=1;verticalLabelPosition=bottom;align=center;labelBackgroundColor=#ffffff;verticalAlign=top;strokeWidth=2;strokeColor=#0080F0;shadow=0;dashed=0;shape=mxgraph.ios7.icons.cloud;" vertex="1" parent="1">
          <mxGeometry x="290" y="320" width="700" height="470" as="geometry" />
        </mxCell>
        <mxCell id="Bn4uSqP8nvEt52WO_NOp-5" value="Openshift" style="aspect=fixed;html=1;points=[];align=center;image;fontSize=12;image=img/lib/mscae/OpenShift.svg;" vertex="1" parent="1">
          <mxGeometry x="720" y="370" width="50" height="46" as="geometry" />
        </mxCell>
        <mxCell id="Bn4uSqP8nvEt52WO_NOp-15" style="edgeStyle=orthogonalEdgeStyle;rounded=0;orthogonalLoop=1;jettySize=auto;html=1;fontColor=#000000;" edge="1" parent="1" source="Bn4uSqP8nvEt52WO_NOp-7" target="Bn4uSqP8nvEt52WO_NOp-13">
          <mxGeometry relative="1" as="geometry" />
        </mxCell>
        <mxCell id="Bn4uSqP8nvEt52WO_NOp-16" value="" style="edgeStyle=orthogonalEdgeStyle;rounded=0;orthogonalLoop=1;jettySize=auto;html=1;fontColor=#000000;" edge="1" parent="1" source="Bn4uSqP8nvEt52WO_NOp-7" target="Bn4uSqP8nvEt52WO_NOp-10">
          <mxGeometry relative="1" as="geometry" />
        </mxCell>
        <mxCell id="Bn4uSqP8nvEt52WO_NOp-17" style="edgeStyle=orthogonalEdgeStyle;rounded=0;orthogonalLoop=1;jettySize=auto;html=1;fontColor=#000000;" edge="1" parent="1" source="Bn4uSqP8nvEt52WO_NOp-7" target="Bn4uSqP8nvEt52WO_NOp-11">
          <mxGeometry relative="1" as="geometry" />
        </mxCell>
        <mxCell id="Bn4uSqP8nvEt52WO_NOp-19" value="Read file in the input folder" style="edgeStyle=orthogonalEdgeStyle;rounded=0;orthogonalLoop=1;jettySize=auto;html=1;fontColor=#000000;" edge="1" parent="1" source="Bn4uSqP8nvEt52WO_NOp-7" target="Bn4uSqP8nvEt52WO_NOp-8">
          <mxGeometry x="-0.0015" y="68" relative="1" as="geometry">
            <mxPoint as="offset" />
          </mxGeometry>
        </mxCell>
        <mxCell id="Bn4uSqP8nvEt52WO_NOp-7" value="batch-totemrapatriementautomation" style="outlineConnect=0;dashed=0;verticalLabelPosition=bottom;verticalAlign=top;align=center;html=1;shape=mxgraph.aws3.batch;fillColor=#F58534;gradientColor=none;" vertex="1" parent="1">
          <mxGeometry x="600" y="559.5" width="76.5" height="73" as="geometry" />
        </mxCell>
        <mxCell id="Bn4uSqP8nvEt52WO_NOp-8" value="input" style="pointerEvents=1;shadow=0;dashed=0;html=1;strokeColor=none;labelPosition=center;verticalLabelPosition=bottom;verticalAlign=top;outlineConnect=0;align=center;shape=mxgraph.office.concepts.folder;fillColor=#2072B8;" vertex="1" parent="1">
          <mxGeometry x="613.25" y="446" width="50" height="45" as="geometry" />
        </mxCell>
        <mxCell id="Bn4uSqP8nvEt52WO_NOp-9" value="Share folder" style="pointerEvents=1;shadow=0;dashed=0;html=1;strokeColor=none;fillColor=#505050;labelPosition=center;verticalLabelPosition=bottom;verticalAlign=top;outlineConnect=0;align=center;shape=mxgraph.office.concepts.folder;" vertex="1" parent="1">
          <mxGeometry x="100" y="300" width="50" height="45" as="geometry" />
        </mxCell>
        <mxCell id="Bn4uSqP8nvEt52WO_NOp-10" value="complete" style="pointerEvents=1;shadow=0;dashed=0;html=1;strokeColor=none;labelPosition=center;verticalLabelPosition=bottom;verticalAlign=top;outlineConnect=0;align=center;shape=mxgraph.office.concepts.folder;fillColor=#2072B8;" vertex="1" parent="1">
          <mxGeometry x="613.25" y="711" width="50" height="45" as="geometry" />
        </mxCell>
        <mxCell id="Bn4uSqP8nvEt52WO_NOp-11" value="reject" style="pointerEvents=1;shadow=0;dashed=0;html=1;strokeColor=#B20000;labelPosition=center;verticalLabelPosition=bottom;verticalAlign=top;outlineConnect=0;align=center;shape=mxgraph.office.concepts.folder;fillColor=#e51400;" vertex="1" parent="1">
          <mxGeometry x="720" y="711" width="50" height="45" as="geometry" />
        </mxCell>
        <mxCell id="Bn4uSqP8nvEt52WO_NOp-13" value="output" style="pointerEvents=1;shadow=0;dashed=0;html=1;strokeColor=#2D7600;labelPosition=center;verticalLabelPosition=bottom;verticalAlign=top;outlineConnect=0;align=center;shape=mxgraph.office.concepts.folder;fillColor=#60a917;" vertex="1" parent="1">
          <mxGeometry x="500" y="711" width="50" height="45" as="geometry" />
        </mxCell>
        <mxCell id="Bn4uSqP8nvEt52WO_NOp-22" style="edgeStyle=orthogonalEdgeStyle;rounded=0;orthogonalLoop=1;jettySize=auto;html=1;fontColor=#000000;" edge="1" parent="1" source="Bn4uSqP8nvEt52WO_NOp-20" target="Bn4uSqP8nvEt52WO_NOp-9">
          <mxGeometry relative="1" as="geometry" />
        </mxCell>
        <mxCell id="Bn4uSqP8nvEt52WO_NOp-23" value="1. Monitor the folder" style="edgeLabel;html=1;align=center;verticalAlign=middle;resizable=0;points=[];fontColor=#000000;" vertex="1" connectable="0" parent="Bn4uSqP8nvEt52WO_NOp-22">
          <mxGeometry x="-0.2758" relative="1" as="geometry">
            <mxPoint x="33" y="78" as="offset" />
          </mxGeometry>
        </mxCell>
        <mxCell id="Bn4uSqP8nvEt52WO_NOp-24" style="edgeStyle=orthogonalEdgeStyle;rounded=0;orthogonalLoop=1;jettySize=auto;html=1;fontColor=#000000;" edge="1" parent="1" source="Bn4uSqP8nvEt52WO_NOp-20" target="Bn4uSqP8nvEt52WO_NOp-21">
          <mxGeometry relative="1" as="geometry" />
        </mxCell>
        <mxCell id="Bn4uSqP8nvEt52WO_NOp-25" value="3. Trigger when we have a file in the share folder" style="edgeLabel;html=1;align=center;verticalAlign=middle;resizable=0;points=[];fontColor=#000000;" vertex="1" connectable="0" parent="Bn4uSqP8nvEt52WO_NOp-24">
          <mxGeometry x="-0.2497" y="-3" relative="1" as="geometry">
            <mxPoint x="34" y="-15" as="offset" />
          </mxGeometry>
        </mxCell>
        <mxCell id="Bn4uSqP8nvEt52WO_NOp-20" value="ViaFiles" style="verticalLabelPosition=bottom;aspect=fixed;html=1;verticalAlign=top;strokeColor=none;align=center;outlineConnect=0;shape=mxgraph.citrix.user_control;fontColor=#000000;" vertex="1" parent="1">
          <mxGeometry x="250" y="70" width="103" height="84" as="geometry" />
        </mxCell>
        <mxCell id="Bn4uSqP8nvEt52WO_NOp-29" style="edgeStyle=orthogonalEdgeStyle;rounded=0;orthogonalLoop=1;jettySize=auto;html=1;fontColor=#000000;" edge="1" parent="1" source="Bn4uSqP8nvEt52WO_NOp-21" target="Bn4uSqP8nvEt52WO_NOp-7">
          <mxGeometry relative="1" as="geometry">
            <Array as="points">
              <mxPoint x="920" y="112" />
              <mxPoint x="920" y="580" />
            </Array>
          </mxGeometry>
        </mxCell>
        <mxCell id="Bn4uSqP8nvEt52WO_NOp-30" value="Run batch program" style="edgeLabel;html=1;align=center;verticalAlign=middle;resizable=0;points=[];fontColor=#000000;" vertex="1" connectable="0" parent="Bn4uSqP8nvEt52WO_NOp-29">
          <mxGeometry x="-0.3534" y="-3" relative="1" as="geometry">
            <mxPoint as="offset" />
          </mxGeometry>
        </mxCell>
        <mxCell id="Bn4uSqP8nvEt52WO_NOp-21" value="Control-M" style="verticalLabelPosition=bottom;aspect=fixed;html=1;verticalAlign=top;strokeColor=none;align=center;outlineConnect=0;shape=mxgraph.citrix.user_control;fontColor=#000000;" vertex="1" parent="1">
          <mxGeometry x="600" y="70" width="103" height="84" as="geometry" />
        </mxCell>
        <mxCell id="Bn4uSqP8nvEt52WO_NOp-26" value="" style="curved=1;endArrow=classic;html=1;fontColor=#000000;exitX=1;exitY=0.222;exitDx=0;exitDy=0;exitPerimeter=0;" edge="1" parent="1" source="Bn4uSqP8nvEt52WO_NOp-9" target="Bn4uSqP8nvEt52WO_NOp-8">
          <mxGeometry width="50" height="50" relative="1" as="geometry">
            <mxPoint x="280" y="310" as="sourcePoint" />
            <mxPoint x="480" y="280" as="targetPoint" />
            <Array as="points">
              <mxPoint x="270" y="220" />
              <mxPoint x="530" y="240" />
            </Array>
          </mxGeometry>
        </mxCell>
        <mxCell id="Bn4uSqP8nvEt52WO_NOp-27" value="2. ViaFiles move the file from the share folder to input folder" style="edgeLabel;html=1;align=center;verticalAlign=middle;resizable=0;points=[];fontColor=#000000;" vertex="1" connectable="0" parent="Bn4uSqP8nvEt52WO_NOp-26">
          <mxGeometry x="-0.1642" y="-5" relative="1" as="geometry">
            <mxPoint x="113.58000000000001" y="27.96" as="offset" />
          </mxGeometry>
        </mxCell>
      </root>
    </mxGraphModel>
  </diagram>
</mxfile>
